<svg width="131" height="315" viewBox="0 0 131 315" fill="none" xmlns="http://www.w3.org/2000/svg">
<path d="M65.835 0.300781L130.835 58.8008L131 58.9502V253.39L130.842 253.538L65.8418 314.365L65.5 314.685L65.1582 314.365L0.158203 253.538L0 253.39V58.9502L0.165039 58.8008L65.165 0.300781L65.5 0L65.835 0.300781ZM65 101C50.4131 101 36.4239 106.795 26.1094 117.109C15.7949 127.424 10 141.413 10 156C10 163.223 11.4225 170.375 14.1865 177.048C16.9505 183.721 21.0022 189.783 26.1094 194.891C31.2165 199.998 37.2793 204.049 43.9521 206.813C50.6251 209.577 57.7773 211 65 211C72.2227 211 79.3749 209.577 86.0479 206.813C92.7207 204.049 98.7835 199.998 103.891 194.891C108.998 189.783 113.049 183.721 115.813 177.048C118.577 170.375 120 163.223 120 156C120 141.413 114.205 127.424 103.891 117.109C93.5761 106.795 79.5869 101 65 101ZM65 111C76.9347 111 88.3802 115.742 96.8193 124.181C105.258 132.62 110 144.065 110 156C110 161.909 108.836 167.761 106.574 173.221C104.313 178.68 100.998 183.641 96.8193 187.819C92.6407 191.998 87.6803 195.313 82.2207 197.574C76.7611 199.836 70.9095 201 65 201C59.0905 201 53.2389 199.836 47.7793 197.574C42.3197 195.313 37.3593 191.998 33.1807 187.819C29.002 183.641 25.6872 178.68 23.4258 173.221C21.1643 167.761 20 161.909 20 156C20 144.065 24.7415 132.62 33.1807 124.181C41.6198 115.742 53.0653 111 65 111ZM65 117.667C62.2386 117.667 60 119.906 60 122.667V126.509C56.6349 127.206 53.4396 128.619 50.7617 130.747C46.6284 134.032 44.2637 138.615 44.2637 143.5C44.2637 148.385 46.6284 152.968 50.7617 156.253L50.7637 156.255C53.4854 158.415 56.69 159.803 60 160.488V175.242C58.5807 174.79 57.2943 174.147 56.2188 173.34L56.2158 173.338L51.333 169.677C49.1236 168.02 45.9895 168.469 44.333 170.679C42.6766 172.888 43.1246 176.022 45.334 177.679L50.2148 181.337V181.338C53.105 183.507 56.5043 184.878 60 185.536V189.333C60 192.094 62.2386 194.333 65 194.333C67.7614 194.333 70 192.094 70 189.333V185.535C73.4946 184.877 76.8929 183.507 79.7832 181.339C84.0997 178.101 86.667 173.505 86.667 168.5C86.667 163.497 84.1016 158.902 79.7881 155.665H79.7891C76.898 153.491 73.4961 152.121 70 151.464V136.889C71.0999 137.305 72.124 137.866 73.0166 138.575L75.3213 140.408C77.4826 142.127 80.628 141.768 82.3467 139.606C84.0654 137.445 83.7063 134.3 81.5449 132.581L79.2393 130.748L79.2383 130.747L78.8623 130.455C76.2636 128.489 73.2089 127.174 70 126.509V122.667C70 119.906 67.7614 117.667 65 117.667ZM70 161.757C71.4199 162.209 72.7059 162.851 73.7783 163.657L73.7832 163.661C75.9778 165.307 76.667 167.107 76.667 168.5C76.667 169.893 75.9778 171.693 73.7832 173.339C72.7066 174.146 71.4193 174.789 70 175.241V161.757ZM60 150.108C59.0435 149.746 58.1585 149.281 57.377 148.722L56.9814 148.423C54.9718 146.825 54.2637 145.012 54.2637 143.5C54.2637 141.987 54.9723 140.174 56.9834 138.575C57.876 137.866 58.9001 137.305 60 136.889V150.108Z" fill="#222222"/>
</svg>
