<svg width="60" height="60" viewBox="0 0 60 60" fill="none" xmlns="http://www.w3.org/2000/svg">
<path d="M31.2793 1.26562C31.8513 0.69377 32.7117 0.522514 33.459 0.832034C34.2062 1.14164 34.6933 1.87086 34.6934 2.67969V17.3467C34.6932 18.451 33.7977 19.3465 32.6934 19.3467H24V23.3203H43.3291C44.6218 23.3203 45.704 23.3184 46.5928 23.3867C47.5065 23.457 48.3654 23.6092 49.1973 23.9922C50.4836 24.5844 51.5711 25.536 52.3281 26.7324C52.8177 27.5063 53.082 28.338 53.2725 29.2344C53.4577 30.1063 53.5987 31.1796 53.7695 32.4609L55.9824 49.0557C55.9941 49.1432 56 49.232 56 49.3203V53.0527C56 53.7665 56.0016 54.4228 55.957 54.9678C55.9106 55.536 55.804 56.1575 55.4912 56.7715C55.0437 57.6496 54.3303 58.3641 53.4521 58.8115C52.838 59.1244 52.2158 59.2309 51.6475 59.2773C51.1025 59.3218 50.447 59.3203 49.7334 59.3203H10.2666C9.55303 59.3203 8.89747 59.3219 8.35254 59.2773C7.85516 59.2367 7.31662 59.1497 6.77832 58.9189L6.54785 58.8115C5.67027 58.3642 4.95639 57.65 4.50879 56.7715C4.19601 56.1575 4.08941 55.536 4.04297 54.9678C4.0207 54.6952 4.01006 54.3946 4.00488 54.0732L4 53.0527V49.3203C4 49.232 4.00592 49.1432 4.01758 49.0557L6.23047 32.4609C6.40131 31.1796 6.54233 30.1063 6.72754 29.2344C6.91795 28.338 7.18232 27.5063 7.67188 26.7324C8.42886 25.5359 9.51659 24.5844 10.8027 23.9922C11.6346 23.6092 12.4935 23.457 13.4072 23.3867C14.296 23.3184 15.3782 23.3203 16.6709 23.3203H20V19.3467H11.3604C10.2559 19.3467 9.36053 18.4511 9.36035 17.3467V16.2422C9.35988 16.2366 9.35885 16.2311 9.3584 16.2256C9.33204 15.9029 9.33301 15.5269 9.33301 15.1865C9.33301 15.0794 9.34414 14.9746 9.36035 14.8721V2.67969C9.36037 1.87088 9.84754 1.14165 10.5947 0.832034C11.342 0.522619 12.2025 0.693698 12.7744 1.26562L16.6934 5.18457L20.6133 1.26562L20.7646 1.12793C21.5502 0.487473 22.7093 0.533484 23.4414 1.26562L27.3604 5.18457L31.2793 1.26562ZM8 53.0527L8.00391 54.0107C8.00781 54.2672 8.01525 54.4695 8.0293 54.6416C8.04646 54.8516 8.0698 54.9402 8.07715 54.9639C8.14004 55.0832 8.23809 55.1802 8.3584 55.2432C8.38515 55.2512 8.47417 55.2734 8.67773 55.29C9.02205 55.3182 9.48694 55.3203 10.2666 55.3203H49.7334C50.5131 55.3203 50.978 55.3182 51.3223 55.29C51.5234 55.2736 51.6127 55.2514 51.6406 55.2432C51.7609 55.1805 51.8586 55.0837 51.9219 54.9639C51.9291 54.9407 51.9535 54.8525 51.9707 54.6416C51.9988 54.2973 52 53.8323 52 53.0527V51.3203H8V53.0527ZM16.6709 27.3203C15.3169 27.3203 14.4139 27.3212 13.7139 27.375C13.0391 27.4269 12.7054 27.5193 12.4756 27.625C11.8911 27.8941 11.3968 28.3273 11.0527 28.8711C10.9176 29.0847 10.7813 29.4034 10.6406 30.0654C10.4947 30.7522 10.3743 31.648 10.1953 32.9902L8.28418 47.3203H51.7158L49.8047 32.9902C49.6257 31.648 49.5053 30.7522 49.3594 30.0654C49.2187 29.4033 49.0824 29.0848 48.9473 28.8711C48.603 28.3271 48.1088 27.8941 47.5244 27.625C47.2947 27.5193 46.961 27.4269 46.2861 27.375C45.5861 27.3212 44.6831 27.3203 43.3291 27.3203H16.6709ZM22 39.3203C23.1046 39.3203 24 40.2157 24 41.3203V41.3467C23.9998 42.4511 23.1045 43.3467 22 43.3467C20.8956 43.3466 20.0002 42.4511 20 41.3467V41.3203C20 40.2158 20.8955 39.3203 22 39.3203ZM30 39.3203C31.1046 39.3203 32 40.2157 32 41.3203V41.3467C31.9998 42.4511 31.1045 43.3467 30 43.3467C28.8956 43.3466 28.0002 42.4511 28 41.3467V41.3203C28 40.2158 28.8955 39.3203 30 39.3203ZM38 39.3203C39.1046 39.3203 40 40.2157 40 41.3203V41.3467C39.9998 42.4511 39.1045 43.3467 38 43.3467C36.8956 43.3466 36.0002 42.4511 36 41.3467V41.3203C36 40.2158 36.8955 39.3203 38 39.3203ZM18 31.3203C19.1046 31.3203 20 32.2157 20 33.3203V33.3467C19.9999 34.4511 19.1045 35.3467 18 35.3467C16.8955 35.3466 16.0001 34.4511 16 33.3467V33.3203C16 32.2158 16.8955 31.3203 18 31.3203ZM26 31.3203C27.1046 31.3203 28 32.2157 28 33.3203V33.3467C27.9999 34.4511 27.1045 35.3467 26 35.3467C24.8955 35.3466 24.0001 34.4511 24 33.3467V33.3203C24 32.2158 24.8955 31.3203 26 31.3203ZM34 31.3203C35.1046 31.3203 36 32.2157 36 33.3203V33.3467C35.9999 34.4511 35.1045 35.3467 34 35.3467C32.8955 35.3466 32.0001 34.4511 32 33.3467V33.3203C32 32.2158 32.8955 31.3203 34 31.3203ZM42 31.3203C43.1046 31.3203 44 32.2157 44 33.3203V33.3467C43.9999 34.4511 43.1045 35.3467 42 35.3467C40.8955 35.3466 40.0001 34.4511 40 33.3467V33.3203C40 32.2158 40.8955 31.3203 42 31.3203ZM18.1074 9.42676C17.3264 10.2078 16.0604 10.2077 15.2793 9.42676L13.3604 7.50781V15.3193C13.3943 15.3196 13.4297 15.3203 13.4668 15.3203H30.5332C30.58 15.3203 30.6243 15.3194 30.666 15.3193C30.666 15.2776 30.667 15.2333 30.667 15.1865C30.667 15.0818 30.6778 14.9793 30.6934 14.8789V7.50781L28.7744 9.42676C28.3994 9.80176 27.8907 10.0126 27.3604 10.0127C26.83 10.0127 26.3214 9.80176 25.9463 9.42676L22.0264 5.50684L18.1074 9.42676Z" fill="#45FF92"/>
</svg>
