<svg width="140" height="327" viewBox="0 0 140 327" fill="none" xmlns="http://www.w3.org/2000/svg">
<path d="M73.3447 3.00977L138.345 61.5098L140 63V261.396L138.416 262.877L73.416 323.704L70 326.901L66.584 323.704L1.58398 262.877L0 261.396V63L1.65527 61.5098L66.6553 3.00977L70 0L73.3447 3.00977ZM10 67.4531V257.058L70 313.206L130 257.058V67.4531L70 13.4531L10 67.4531ZM69.5 107.054C84.0869 107.054 98.0761 112.849 108.391 123.163C118.705 133.478 124.5 147.467 124.5 162.054C124.5 169.276 123.077 176.429 120.313 183.102C117.549 189.774 113.498 195.837 108.391 200.944C103.283 206.052 97.2207 210.103 90.5479 212.867C83.8749 215.631 76.7227 217.054 69.5 217.054C62.2773 217.054 55.1251 215.631 48.4521 212.867C41.7793 210.103 35.7165 206.052 30.6094 200.944C25.5022 195.837 21.4505 189.774 18.6865 183.102C15.9225 176.429 14.5 169.276 14.5 162.054C14.5 147.467 20.2949 133.478 30.6094 123.163C40.9239 112.849 54.9131 107.054 69.5 107.054ZM69.5 117.054C57.5653 117.054 46.1198 121.795 37.6807 130.234C29.2415 138.674 24.5 150.119 24.5 162.054C24.5 167.963 25.6643 173.815 27.9258 179.274C30.1872 184.734 33.502 189.694 37.6807 193.873C41.8593 198.052 46.8197 201.366 52.2793 203.628C57.7389 205.889 63.5905 207.054 69.5 207.054C75.4095 207.054 81.2611 205.889 86.7207 203.628C92.1803 201.366 97.1407 198.052 101.319 193.873C105.498 189.694 108.813 184.734 111.074 179.274C113.336 173.815 114.5 167.963 114.5 162.054C114.5 150.119 109.758 138.674 101.319 130.234C92.8802 121.795 81.4347 117.054 69.5 117.054ZM69.5 123.721C72.2614 123.721 74.5 125.959 74.5 128.721V132.562C77.7089 133.227 80.7636 134.543 83.3623 136.509L83.7383 136.801L83.7393 136.802L86.0449 138.635C88.2063 140.353 88.5654 143.499 86.8467 145.66C85.128 147.821 81.9826 148.181 79.8213 146.462L77.5166 144.629C76.624 143.92 75.5999 143.359 74.5 142.942V157.518C77.9961 158.175 81.398 159.544 84.2891 161.719H84.2881C88.6016 164.956 91.167 169.551 91.167 174.554C91.167 179.558 88.5997 184.155 84.2832 187.393C81.3929 189.56 77.9946 190.93 74.5 191.589V195.387C74.5 198.148 72.2614 200.387 69.5 200.387C66.7386 200.387 64.5 198.148 64.5 195.387V191.59C61.0043 190.932 57.605 189.561 54.7148 187.392V187.391L49.834 183.732C47.6246 182.076 47.1766 178.942 48.833 176.732C50.4895 174.523 53.6236 174.074 55.833 175.73L60.7158 179.392L60.7188 179.394C61.7943 180.201 63.0807 180.843 64.5 181.296V166.542C61.19 165.856 57.9854 164.469 55.2637 162.309L55.2617 162.307C51.1284 159.022 48.7637 154.438 48.7637 149.554C48.7637 144.669 51.1284 140.086 55.2617 136.801C57.9396 134.673 61.1349 133.26 64.5 132.562V128.721C64.5 125.959 66.7386 123.721 69.5 123.721ZM74.5 181.295C75.9193 180.842 77.2066 180.2 78.2832 179.393C80.4778 177.747 81.167 175.946 81.167 174.554C81.167 173.161 80.4778 171.361 78.2832 169.715L78.2783 169.711C77.2059 168.904 75.9199 168.262 74.5 167.811V181.295ZM64.5 142.942C63.4001 143.359 62.376 143.92 61.4834 144.629C59.4723 146.227 58.7637 148.041 58.7637 149.554C58.7637 151.066 59.4718 152.879 61.4814 154.477L61.877 154.775C62.6585 155.335 63.5435 155.8 64.5 156.162V142.942Z" fill="#222222"/>
</svg>
