<svg width="130" height="314" viewBox="0 0 130 314" fill="none" xmlns="http://www.w3.org/2000/svg">
<path d="M130 58.5V252.5L65 313.327L0 252.5V58.5L65 0L130 58.5ZM64.5 100.327C49.9131 100.327 35.9239 106.122 25.6094 116.437C15.2949 126.751 9.5 140.74 9.5 155.327C9.5 162.55 10.9225 169.702 13.6865 176.375C16.4505 183.048 20.5022 189.111 25.6094 194.218C30.7165 199.325 36.7793 203.377 43.4521 206.141C50.1251 208.905 57.2773 210.327 64.5 210.327C71.7227 210.327 78.8749 208.905 85.5479 206.141C92.2207 203.377 98.2835 199.325 103.391 194.218C108.498 189.111 112.549 183.048 115.313 176.375C118.077 169.702 119.5 162.55 119.5 155.327C119.5 140.74 113.705 126.751 103.391 116.437C93.0761 106.122 79.0869 100.327 64.5 100.327ZM64.5 110.327C76.4347 110.327 87.8802 115.069 96.3193 123.508C104.758 131.947 109.5 143.392 109.5 155.327C109.5 161.237 108.336 167.088 106.074 172.548C103.813 178.007 100.498 182.968 96.3193 187.146C92.1407 191.325 87.1803 194.64 81.7207 196.901C76.2611 199.163 70.4095 200.327 64.5 200.327C58.5905 200.327 52.7389 199.163 47.2793 196.901C41.8197 194.64 36.8593 191.325 32.6807 187.146C28.502 182.968 25.1872 178.007 22.9258 172.548C20.6643 167.088 19.5 161.237 19.5 155.327C19.5 143.392 24.2415 131.947 32.6807 123.508C41.1198 115.069 52.5653 110.327 64.5 110.327ZM64.5 116.994C61.7386 116.994 59.5 119.233 59.5 121.994V125.836C56.1349 126.533 52.9396 127.946 50.2617 130.074C46.1284 133.359 43.7637 137.943 43.7637 142.827C43.7637 147.712 46.1284 152.295 50.2617 155.58L50.2637 155.582C52.9854 157.743 56.19 159.13 59.5 159.815V174.569C58.0807 174.117 56.7943 173.474 55.7188 172.667L55.7158 172.665L50.833 169.004C48.6236 167.347 45.4895 167.796 43.833 170.006C42.1766 172.215 42.6246 175.349 44.834 177.006L49.7148 180.664V180.665C52.605 182.834 56.0043 184.205 59.5 184.863V188.66C59.5 191.422 61.7386 193.66 64.5 193.66C67.2614 193.66 69.5 191.422 69.5 188.66V184.862C72.9946 184.204 76.3929 182.834 79.2832 180.666C83.5997 177.429 86.167 172.832 86.167 167.827C86.167 162.825 83.6016 158.229 79.2881 154.992H79.2891C76.398 152.818 72.9961 151.448 69.5 150.791V136.216C70.5999 136.632 71.624 137.193 72.5166 137.902L74.8213 139.735C76.9826 141.454 80.128 141.095 81.8467 138.934C83.5654 136.772 83.2063 133.627 81.0449 131.908L78.7393 130.075L78.7383 130.074L78.3623 129.782C75.7636 127.816 72.7089 126.501 69.5 125.836V121.994C69.5 119.233 67.2614 116.994 64.5 116.994ZM69.5 161.084C70.9199 161.536 72.2059 162.178 73.2783 162.984L73.2832 162.988C75.4778 164.634 76.167 166.434 76.167 167.827C76.167 169.22 75.4778 171.02 73.2832 172.666C72.2066 173.473 70.9193 174.116 69.5 174.568V161.084ZM59.5 149.436C58.5435 149.073 57.6585 148.609 56.877 148.049L56.4814 147.75C54.4718 146.152 53.7637 144.339 53.7637 142.827C53.7637 141.315 54.4723 139.501 56.4834 137.902C57.376 137.193 58.4001 136.632 59.5 136.216V149.436Z" fill="#688BDF"/>
</svg>
